<?xml version="1.0" standalone="no"?>
<!DOCTYPE svg PUBLIC "-//W3C//DTD SVG 20010904//EN"
 "http://www.w3.org/TR/2001/REC-SVG-20010904/DTD/svg10.dtd">
<svg version="1.0" xmlns="http://www.w3.org/2000/svg"
 width="366.000000pt" height="592.000000pt" viewBox="0 0 366.000000 592.000000"
 preserveAspectRatio="xMidYMid meet">

<g transform="translate(0.000000,592.000000) scale(0.100000,-0.100000)"
fill="#000000" stroke="none">
<path d="M1330 5900 c-421 -43 -745 -124 -940 -233 -63 -36 -145 -109 -166
-148 -10 -20 -64 -241 -64 -263 0 -1 -28 -23 -63 -49 l-64 -46 -18 -81 c-17
-74 -17 -93 -6 -238 19 -228 24 -250 56 -276 l27 -22 313 -2069 313 -2070 63
-58 c176 -160 413 -268 710 -323 115 -21 447 -30 579 -15 228 26 424 79 596
162 145 69 274 160 342 241 22 26 37 137 276 2057 l253 2030 31 36 c18 19 39
49 48 67 20 38 36 205 37 375 l1 121 -69 74 -70 73 -29 120 c-16 66 -37 136
-47 156 -69 137 -386 272 -799 340 -371 61 -932 77 -1310 39z m1020 -64 c539
-57 935 -188 1030 -340 18 -30 20 -40 11 -74 -44 -163 -330 -298 -786 -372
-625 -101 -1396 -66 -1874 85 -110 35 -129 48 -91 60 33 10 45 43 24 66 -16
17 -12 17 37 -4 572 -253 2047 -220 2445 54 53 36 86 97 77 143 -23 119 -310
230 -737 286 -678 88 -1553 8 -1846 -168 -106 -64 -136 -135 -89 -211 l20 -34
-49 37 c-67 49 -105 56 -137 26 -40 -37 -32 -55 45 -106 73 -49 90 -65 42 -40
-94 49 -202 159 -202 206 0 69 150 177 340 245 173 62 489 122 755 144 72 6
150 13 175 15 105 9 674 -4 810 -18z m-187 -96 c549 -33 969 -146 1023 -276
14 -33 13 -39 -4 -72 -39 -77 -220 -155 -477 -206 -192 -38 -340 -54 -600 -67
l-233 -12 -467 271 c-258 149 -462 274 -454 276 35 13 226 46 344 61 270 33
582 42 868 25z m-1266 -107 c-2 -5 -46 -82 -97 -173 -51 -91 -94 -166 -96
-168 -5 -7 -80 38 -107 63 -92 87 -23 178 190 251 103 35 117 39 110 27z m468
-265 c239 -138 433 -253 432 -255 -2 -1 -89 2 -193 8 -208 11 -425 37 -578 69
-100 20 -296 77 -296 85 0 7 193 345 196 345 2 0 199 -113 439 -252z m-820
-56 c54 -37 98 -72 99 -77 0 -6 -12 -14 -25 -19 -22 -7 -39 1 -125 60 -54 37
-101 69 -103 71 -9 6 23 33 39 33 9 0 61 -30 115 -68z m-240 -15 c323 -315
1403 -455 2328 -302 378 63 613 157 748 298 l47 49 12 -54 c17 -73 24 -84 90
-153 54 -56 58 -64 64 -121 8 -70 5 -74 -104 -144 -412 -264 -1265 -370 -2165
-269 -568 64 -1054 206 -1214 356 l-51 48 16 60 c15 56 20 63 79 107 61 46 63
48 75 112 7 36 14 66 17 66 2 0 28 -24 58 -53z m-47 -499 c280 -133 771 -237
1307 -278 191 -15 661 -15 830 0 517 44 900 149 1142 312 23 15 43 28 45 28 2
0 0 -48 -4 -106 -6 -90 -11 -113 -33 -145 -90 -136 -396 -271 -801 -353 -508
-103 -1157 -113 -1669 -25 -394 67 -748 207 -966 381 -12 10 -19 44 -28 129
-6 63 -11 127 -11 141 l0 27 53 -36 c28 -20 89 -53 135 -75z m73 -393 c290
-147 610 -229 1079 -276 161 -17 677 -17 845 -1 491 47 920 154 1148 288 33
19 61 34 62 32 1 -2 -109 -898 -245 -1991 -211 -1690 -251 -1992 -267 -2010
-61 -70 -177 -152 -298 -212 -455 -223 -1114 -233 -1550 -25 -96 46 -212 121
-279 182 l-49 44 -303 2004 c-167 1103 -305 2018 -308 2033 l-6 29 33 -21 c17
-12 79 -46 138 -76z"/>
</g>
</svg>
